<mxfile host="app.diagrams.net" modified="2023-05-02T15:01:59.536Z" agent="Mozilla/5.0 (Windows NT 10.0; Win64; x64) AppleWebKit/537.36 (KHTML, like Gecko) Chrome/112.0.0.0 Safari/537.36" etag="BH82xbcgRIykpTL6bKGX" version="21.2.4" type="github">
  <diagram name="第 1 页" id="0g6Zbe-DuxP5mN3wOX4V">
    <mxGraphModel dx="1221" dy="743" grid="1" gridSize="10" guides="1" tooltips="1" connect="1" arrows="1" fold="1" page="1" pageScale="1" pageWidth="827" pageHeight="1169" math="0" shadow="0">
      <root>
        <mxCell id="0" />
        <mxCell id="1" parent="0" />
        <mxCell id="VnybOerspw2ZasavD2Jz-1" value="VPS" style="rounded=0;whiteSpace=wrap;html=1;" vertex="1" parent="1">
          <mxGeometry x="85" y="170" width="120" height="60" as="geometry" />
        </mxCell>
        <mxCell id="VnybOerspw2ZasavD2Jz-2" value="目标机器" style="rounded=0;whiteSpace=wrap;html=1;" vertex="1" parent="1">
          <mxGeometry x="470" y="350" width="120" height="60" as="geometry" />
        </mxCell>
        <mxCell id="VnybOerspw2ZasavD2Jz-13" style="edgeStyle=orthogonalEdgeStyle;rounded=0;orthogonalLoop=1;jettySize=auto;html=1;exitX=0.25;exitY=1;exitDx=0;exitDy=0;entryX=0.638;entryY=1.037;entryDx=0;entryDy=0;entryPerimeter=0;" edge="1" parent="1" source="VnybOerspw2ZasavD2Jz-3" target="VnybOerspw2ZasavD2Jz-3">
          <mxGeometry relative="1" as="geometry">
            <mxPoint x="200" y="550" as="targetPoint" />
            <Array as="points">
              <mxPoint x="135" y="495" />
              <mxPoint x="220" y="495" />
            </Array>
          </mxGeometry>
        </mxCell>
        <mxCell id="VnybOerspw2ZasavD2Jz-3" value="beacon" style="rounded=0;whiteSpace=wrap;html=1;" vertex="1" parent="1">
          <mxGeometry x="80" y="340" width="220" height="100" as="geometry" />
        </mxCell>
        <mxCell id="VnybOerspw2ZasavD2Jz-4" value="" style="endArrow=classic;html=1;rounded=0;entryX=1;entryY=0.25;entryDx=0;entryDy=0;exitX=0;exitY=0.25;exitDx=0;exitDy=0;" edge="1" parent="1" source="VnybOerspw2ZasavD2Jz-2" target="VnybOerspw2ZasavD2Jz-3">
          <mxGeometry width="50" height="50" relative="1" as="geometry">
            <mxPoint x="430" y="360" as="sourcePoint" />
            <mxPoint x="320" y="360" as="targetPoint" />
          </mxGeometry>
        </mxCell>
        <mxCell id="VnybOerspw2ZasavD2Jz-5" value="445端口流量" style="text;html=1;align=center;verticalAlign=middle;resizable=0;points=[];autosize=1;strokeColor=none;fillColor=none;" vertex="1" parent="1">
          <mxGeometry x="320" y="328" width="90" height="30" as="geometry" />
        </mxCell>
        <mxCell id="VnybOerspw2ZasavD2Jz-15" value="PortBender 转发445 到&amp;nbsp; 8888端口" style="text;html=1;align=center;verticalAlign=middle;resizable=0;points=[];autosize=1;strokeColor=none;fillColor=none;" vertex="1" parent="1">
          <mxGeometry x="85" y="500" width="200" height="30" as="geometry" />
        </mxCell>
      </root>
    </mxGraphModel>
  </diagram>
</mxfile>
